<?xml version="1.0" standalone="no"?>
<!DOCTYPE svg PUBLIC "-//W3C//DTD SVG 20010904//EN"
 "http://www.w3.org/TR/2001/REC-SVG-20010904/DTD/svg10.dtd">
<svg version="1.0" xmlns="http://www.w3.org/2000/svg"
 width="275.000000pt" height="273.000000pt" viewBox="0 0 275.000000 273.000000"
 preserveAspectRatio="xMidYMid meet">
<g transform="translate(0.000000,273.000000) scale(0.100000,-0.100000)"
fill="#FFFFFF" stroke="none">
<path d="M182 2715 c-53 -23 -101 -65 -130 -114 l-27 -46 -3 -1170 c-2 -1073
-1 -1174 14 -1214 21 -55 75 -116 128 -144 l41 -22 1169 -3 1168 -2 52 23 c62
28 112 77 137 132 18 38 19 99 19 1211 l0 1170 -26 52 c-27 55 -79 103 -138
127 -52 22 -2353 22 -2404 0z m2349 -25 c70 -13 128 -55 159 -116 l25 -48 2
-1166 3 -1165 -38 -50 c-21 -27 -58 -63 -82 -80 l-45 -30 -1165 0 -1165 0 -41
23 c-42 23 -73 54 -111 109 l-22 31 2 1164 c2 933 5 1169 15 1193 17 38 79
104 112 117 14 6 41 14 60 18 55 12 2228 12 2291 0z"/>
<path d="M1035 2544 c-140 -35 -255 -103 -357 -212 -73 -77 -127 -167 -153
-252 -24 -80 -34 -441 -35 -1237 l0 -673 383 0 c384 0 691 12 783 29 215 41
449 234 567 468 54 106 71 193 72 363 0 174 -10 220 -72 344 -75 148 -190 284
-304 360 l-56 37 -6 122 c-3 87 -11 140 -27 187 -51 152 -145 273 -284 364
-139 91 -168 100 -341 102 -82 2 -159 0 -170 -2z m280 -29 c39 -8 108 -33 155
-57 68 -33 102 -59 170 -127 95 -96 137 -166 169 -281 20 -70 31 -233 17 -247
-3 -3 -31 4 -63 15 -124 45 -174 53 -385 59 l-208 6 0 323 0 324 38 0 c20 0
69 -7 107 -15z m-185 -315 l0 -320 -305 0 -305 0 6 63 c22 214 159 415 348
507 86 42 170 68 224 69 l32 1 0 -320z m0 -1180 l0 -820 -305 0 -305 0 0 820
0 820 305 0 305 0 0 -820z m492 806 c296 -63 535 -287 620 -581 30 -105 33
-333 5 -435 -72 -259 -286 -488 -531 -565 -111 -36 -187 -45 -378 -45 l-168 0
0 820 0 820 193 0 c126 0 215 -5 259 -14z"/>
</g>
</svg>
